<svg xmlns="http://www.w3.org/2000/svg" width="1200" height="900" viewBox="0 0 1200 900" fill="none">
  <defs>
    <linearGradient id="bg" x1="0" y1="0" x2="1200" y2="900" gradientUnits="userSpaceOnUse">
      <stop stop-color="#0f766e"/>
      <stop offset="0.5" stop-color="#0e7490"/>
      <stop offset="1" stop-color="#134e4a"/>
    </linearGradient>
    <linearGradient id="glow" x1="700" y1="80" x2="1000" y2="480" gradientUnits="userSpaceOnUse">
      <stop stop-color="#2dd4bf" stop-opacity="0.35"/>
      <stop offset="1" stop-color="#14b8a6" stop-opacity="0"/>
    </linearGradient>
    <linearGradient id="bar" x1="0" y1="1" x2="0" y2="0" gradientUnits="objectBoundingBox">
      <stop stop-color="#99f6e4"/>
      <stop offset="1" stop-color="#0d9488"/>
    </linearGradient>
  </defs>
  <rect width="1200" height="900" fill="url(#bg)"/>
  <ellipse cx="820" cy="300" rx="420" ry="300" fill="url(#glow)"/>
  <rect x="100" y="120" width="540" height="380" rx="22" fill="rgba(255,255,255,0.07)" stroke="rgba(255,255,255,0.18)" stroke-width="1"/>
  <rect x="135" y="165" width="130" height="16" rx="8" fill="rgba(255,255,255,0.4)"/>
  <rect x="135" y="198" width="220" height="11" rx="5" fill="rgba(255,255,255,0.14)"/>
  <rect x="135" y="232" width="470" height="9" rx="4" fill="rgba(255,255,255,0.09)"/>
  <rect x="135" y="252" width="410" height="9" rx="4" fill="rgba(255,255,255,0.07)"/>
  <rect x="150" y="300" width="38" height="150" rx="8" fill="url(#bar)"/>
  <rect x="212" y="335" width="38" height="115" rx="8" fill="url(#bar)" opacity="0.88"/>
  <rect x="274" y="275" width="38" height="175" rx="8" fill="url(#bar)"/>
  <rect x="336" y="315" width="38" height="135" rx="8" fill="url(#bar)" opacity="0.82"/>
  <rect x="398" y="245" width="38" height="205" rx="8" fill="url(#bar)"/>
  <rect x="460" y="295" width="38" height="155" rx="8" fill="url(#bar)" opacity="0.85"/>
  <rect x="522" y="265" width="38" height="185" rx="8" fill="url(#bar)"/>
  <rect x="660" y="100" width="440" height="540" rx="26" fill="rgba(15,23,42,0.4)" stroke="rgba(45,212,191,0.4)" stroke-width="1"/>
  <rect x="705" y="155" width="170" height="13" rx="6" fill="rgba(94,234,212,0.55)"/>
  <rect x="705" y="188" width="350" height="9" rx="4" fill="rgba(255,255,255,0.12)"/>
  <rect x="705" y="208" width="290" height="9" rx="4" fill="rgba(255,255,255,0.08)"/>
  <path d="M705 360 Q800 280 895 320 T1085 300" stroke="#5eead4" stroke-width="3" fill="none" stroke-linecap="round"/>
  <circle cx="705" cy="360" r="7" fill="#ccfbf1"/>
  <circle cx="895" cy="320" r="7" fill="#5eead4"/>
  <circle cx="1085" cy="300" r="7" fill="#14b8a6"/>
  <rect x="705" y="500" width="350" height="48" rx="14" fill="rgba(45,212,191,0.22)"/>
  <rect x="728" y="518" width="130" height="12" rx="6" fill="rgba(255,255,255,0.45)"/>
  <rect x="705" y="575" width="160" height="10" rx="5" fill="rgba(255,255,255,0.1)"/>
</svg>
